HIERARCHY
ROOT Hips
{
  OFFSET 0 89.5177 0.535
  CHANNELS 6 Xposition Yposition Zposition Zrotation Xrotation Yrotation
  JOINT Spine
  {
    OFFSET 12.0259 -0.162855 1.69034e-005
    CHANNELS 3 Zrotation Xrotation Yrotation
    JOINT Spine1
    {
      OFFSET 15.3169 -0.0121922 0
      CHANNELS 3 Zrotation Xrotation Yrotation
      JOINT Spine2
      {
        OFFSET 15.3176 -0.0121908 0
        CHANNELS 3 Zrotation Xrotation Yrotation
        JOINT Neck
        {
          OFFSET 19.9142 1.56338 0
          CHANNELS 3 Zrotation Xrotation Yrotation
          JOINT Head
          {
            OFFSET 6.92651 0 0
            CHANNELS 3 Zrotation Xrotation Yrotation
            End Site
            {
              OFFSET 20.7666 0 0
            }
          }
          JOINT LeftShoulder
          {
            OFFSET -6.20654 0.708824 7.28219
            CHANNELS 3 Zrotation Xrotation Yrotation
            JOINT LeftArm
            {
              OFFSET 14.108 0 -1.52588e-005
              CHANNELS 3 Zrotation Xrotation Yrotation
              JOINT LeftForeArm
              {
                OFFSET 28.5802 0 0
                CHANNELS 3 Zrotation Xrotation Yrotation
                JOINT LeftHand
                {
                  OFFSET 27.092 0 0
                  CHANNELS 3 Zrotation Xrotation Yrotation
                  End Site
                  {
                    OFFSET 9.55928 -0.186424 0.145352
                  }
                }
              }
            }
          }
          JOINT RightShoulder
          {
            OFFSET -6.20654 0.708866 -7.28218
            CHANNELS 3 Zrotation Xrotation Yrotation
            JOINT RightArm
            {
              OFFSET 14.108 0 1.52588e-005
              CHANNELS 3 Zrotation Xrotation Yrotation
              JOINT RightForeArm
              {
                OFFSET 28.5802 0 0
                CHANNELS 3 Zrotation Xrotation Yrotation
                JOINT RightHand
                {
                  OFFSET 27.092 0 0
                  CHANNELS 3 Zrotation Xrotation Yrotation
                  End Site
                  {
                    OFFSET 9.55929 -0.186417 -0.145354
                  }
                }
              }
            }
          }
        }
      }
    }
  }
  JOINT LeftUpLeg
  {
    OFFSET 0.005 -0.535 8.837
    CHANNELS 3 Zrotation Xrotation Yrotation
    JOINT LeftLeg
    {
      OFFSET 39.9035 0 0
      CHANNELS 3 Zrotation Xrotation Yrotation
      JOINT LeftFoot
      {
        OFFSET 39.6689 0 0
        CHANNELS 3 Zrotation Xrotation Yrotation
        JOINT LeftToe
        {
          OFFSET 10.1624 13.6296 0
          CHANNELS 3 Zrotation Xrotation Yrotation
          End Site
          {
            OFFSET 8.38147 0 0
          }
        }
      }
    }
  }
  JOINT RightUpLeg
  {
    OFFSET 0.005 -0.535 -8.837
    CHANNELS 3 Zrotation Xrotation Yrotation
    JOINT RightLeg
    {
      OFFSET 39.9035 0 0
      CHANNELS 3 Zrotation Xrotation Yrotation
      JOINT RightFoot
      {
        OFFSET 39.6689 0 0
        CHANNELS 3 Zrotation Xrotation Yrotation
        JOINT RightToe
        {
          OFFSET 10.1624 13.6296 0
          CHANNELS 3 Zrotation Xrotation Yrotation
          End Site
          {
            OFFSET 8.38147 0 0
          }
        }
      }
    }
  }
}
MOTION
Frames:	17
Frame Time:	0.0333333
178.194 89.4022 -210.451 -175.483 -83.4323 95.4153 -0.723504 -1.22868 -1.08271 -1.4706 -2.4429 -2.18143 -1.4706 -2.4429 -2.18144 -8.30708e-012 -9.0191e-006 -5.27751e-005 10 -1.69084e-006 2.312e-005 -179.348 -31.3803 -88.7483 -28.8852 -66.9448 6.30431 -2.9413 9.54166e-015 -0 -23.507 -32.456 -22.4946 -179.058 21.9605 87.4814 -29.5765 32.6566 -0.291748 -7.16786 -6.36111e-015 -7.95139e-016 -72.8895 69.9967 76.6321 -0.513836 8.6255 -178.123 -7.42847 1.59028e-015 -7.95139e-016 13.8833 5.11808 -8.15757 90 1.52195e-016 3.97569e-016 -1.63093 -13.979 176.656 -5.90121 3.18056e-015 3.97569e-016 10.6993 -1.92617 3.05859 90 4.96962e-017 -0 
178.197 89.4022 -210.449 -175.506 -83.4234 95.3942 -0.724579 -1.23035 -1.07936 -1.47271 -2.44626 -2.17477 -1.47271 -2.44626 -2.17478 -8.30708e-012 -9.0191e-006 -5.27751e-005 9.97108 0.0390233 -0.0332661 -179.306 -31.4048 -88.6688 -29.0179 -66.9184 6.19936 -2.93431 0 3.18055e-015 -23.3936 -32.5117 -22.4106 -179.061 21.9488 87.489 -29.5042 32.683 -0.345496 -7.19589 0 -1.59028e-015 -72.9455 69.9892 76.6927 -0.528236 8.62859 -178.121 -7.44028 -1.59028e-015 -3.97569e-016 13.8759 5.12174 -8.16329 90 -1.40392e-015 -0 -1.64306 -13.9973 176.655 -5.90381 -1.59028e-015 -0 10.7036 -1.93589 3.07392 90 1.2424e-017 3.18055e-015 
178.199 89.4022 -210.45 -175.506 -83.4307 95.3946 -0.724412 -1.23192 -1.07774 -1.46749 -2.45057 -2.17549 -1.46749 -2.45057 -2.1755 -8.30748e-012 -9.0191e-006 -5.27751e-005 9.96439 0.0532329 -0.057851 -179.309 -31.4154 -88.6739 -28.9129 -66.9906 6.32468 -2.95253 0 1.59028e-015 -23.3875 -32.4699 -22.3951 -179.054 21.9476 87.4706 -29.4892 32.72 -0.361797 -7.1846 -3.18055e-015 -0 -72.9 70.0456 76.6511 -0.519712 8.64323 -178.121 -7.44004 0 -0 13.8866 5.12707 -8.17193 90 1.73005e-015 3.97569e-016 -1.62456 -13.9764 176.664 -5.89128 0 -3.97569e-016 10.7025 -1.92562 3.05768 90 1.36664e-016 3.18055e-015 
178.2 89.4022 -210.45 -175.503 -83.4432 95.3985 -0.723985 -1.23345 -1.07642 -1.46735 -2.45433 -2.1762 -1.46735 -2.45433 -2.17621 -8.30788e-012 -9.0191e-006 -5.27751e-005 9.9656 0.0510086 -0.0547844 -179.311 -31.4175 -88.6781 -28.9508 -67.0565 6.3212 -2.86518 9.54166e-015 1.59028e-015 -23.4258 -32.4365 -22.419 -179.051 21.9269 87.4609 -29.4259 32.6256 -0.387019 -7.22075 0 -7.95139e-016 -72.9441 70.0245 76.6948 -0.50724 8.63842 -178.12 -7.4457 1.59028e-015 -3.97569e-016 13.9096 5.13033 -8.17745 90 8.51047e-016 7.95139e-016 -1.62949 -13.9965 176.652 -5.92437 -3.18056e-015 7.95139e-016 10.7178 -1.93515 3.07279 90 4.96962e-017 -4.77083e-015 
178.201 89.4023 -210.451 -175.518 -83.4339 95.3847 -0.723371 -1.23477 -1.0748 -1.46148 -2.45525 -2.16559 -1.46148 -2.45525 -2.1656 -8.30748e-012 -9.0191e-006 -5.27751e-005 9.96846 0.0457288 -0.103494 -179.275 -31.388 -88.6074 -28.9825 -66.9473 6.27102 -2.92245 6.36111e-015 -0 -23.4032 -32.4856 -22.4118 -179.046 21.9625 87.4496 -29.4448 32.6416 -0.373701 -7.21563 6.36111e-015 7.95139e-016 -72.9531 70.057 76.7077 -0.53787 8.64264 -178.119 -7.47805 0 1.59028e-015 13.908 5.13942 -8.1918 90 -9.06955e-016 -0 -1.64676 -13.9805 176.66 -5.94022 4.77083e-015 -3.97569e-016 10.7124 -1.91355 3.03856 90 -3.72721e-017 -1.59028e-015 
178.198 89.4024 -210.452 -175.511 -83.4498 95.3923 -0.722616 -1.23522 -1.07151 -1.45684 -2.47145 -2.15907 -1.45684 -2.47145 -2.15908 -8.30629e-012 -9.0191e-006 -5.27751e-005 9.97171 0.0845075 -0.103527 -179.265 -31.3839 -88.5892 -28.9275 -66.9553 6.312 -2.92084 -3.18055e-015 -0 -23.4086 -32.501 -22.421 -179.048 21.9604 87.4558 -29.5035 32.6688 -0.360997 -7.15795 -6.36111e-015 -1.59028e-015 -72.8778 70.0153 76.6239 -0.517674 8.61825 -178.118 -7.47309 0 -3.97569e-016 13.8959 5.12976 -8.17621 90 1.55301e-016 -3.97569e-016 -1.63877 -14.0147 176.648 -5.96336 1.59028e-015 -1.19271e-015 10.7451 -1.93904 3.07897 90 1.2424e-016 -3.18055e-015 
178.194 89.4025 -210.453 -175.534 -83.428 95.3708 -0.721897 -1.2361 -1.06952 -1.46306 -2.45795 -2.1615 -1.46306 -2.45795 -2.16151 -8.30669e-012 -9.0191e-006 -5.27751e-005 9.97614 0.00720279 -0.0346847 -179.277 -31.3097 -88.6083 -28.7956 -66.9175 6.41497 -2.97851 -6.36111e-015 -1.59028e-015 -23.3698 -32.4131 -22.3667 -179.038 22.0239 87.4355 -29.5515 32.6244 -0.348274 -7.15502 -3.18055e-015 -7.95139e-016 -72.9767 69.9951 76.7259 -0.551846 8.61412 -178.118 -7.48628 -1.59028e-015 -0 13.9018 5.11631 -8.15462 90 -3.41661e-017 -0 -1.66853 -13.9682 176.647 -5.9597 -1.59028e-015 -0 10.7184 -1.91862 3.04662 90 2.48481e-017 -0 
178.19 89.4026 -210.454 -175.516 -83.4513 95.3885 -0.721381 -1.24308 -1.06756 -1.45168 -2.47198 -2.16399 -1.45168 -2.47198 -2.164 -8.30788e-012 -9.0191e-006 -5.27751e-005 10.0164 0.0322605 0.000649067 -179.293 -31.3504 -88.6417 -28.813 -66.8166 6.45711 -3.0337 -6.36111e-015 1.59028e-015 -23.4372 -32.5814 -22.4654 -179.043 21.9478 87.4403 -29.4453 32.6614 -0.396267 -7.19407 -3.18055e-015 7.95139e-016 -72.8256 70.0026 76.5679 -0.530506 8.63264 -178.117 -7.49438 -1.59028e-015 3.97569e-016 13.9056 5.13058 -8.17754 90 8.60365e-016 -0 -1.63304 -13.9724 176.653 -5.94175 1.59028e-015 -3.97569e-016 10.7122 -1.91285 3.03749 90 1.2424e-016 3.18055e-015 
178.184 89.4025 -210.455 -175.526 -83.4381 95.3799 -0.721045 -1.24973 -1.06608 -1.46228 -2.48528 -2.15071 -1.46228 -2.48528 -2.15072 -8.30708e-012 -9.0191e-006 -5.27751e-005 10.0247 0.0286809 -0.0177225 -179.287 -31.3148 -88.6281 -28.7148 -66.6854 6.51585 -3.10484 -6.36111e-015 -0 -23.4152 -32.6028 -22.4587 -179.049 21.9553 87.4577 -29.5009 32.5845 -0.370247 -7.21805 6.36111e-015 7.95139e-016 -72.8725 69.999 76.617 -0.535685 8.6186 -178.127 -7.47723 0 -0 13.9041 5.11661 -8.15517 90 -1.56232e-015 -1.19271e-015 -1.65796 -13.9908 176.643 -5.95204 3.18056e-015 -0 10.7102 -1.91337 3.05009 90 1.73937e-016 -1.59028e-015 
178.179 89.4023 -210.456 -175.48 -83.4242 95.4266 -0.720908 -1.25179 -1.06548 -1.46545 -2.4844 -2.14712 -1.46545 -2.4844 -2.14713 -8.30708e-012 -9.0191e-006 -5.27751e-005 10.0463 0.0163428 -0.00121576 -179.285 -31.2775 -88.6229 -28.7962 -66.7302 6.47294 -3.10626 0 3.18055e-015 -23.4199 -32.5844 -22.4539 -179.035 22.0019 87.4267 -29.5488 32.5839 -0.324335 -7.22403 6.36111e-015 -0 -72.8488 69.9942 76.5909 -0.552379 8.65322 -178.124 -7.48674 1.59028e-015 -0 13.9129 5.13634 -8.18693 90 5.0628e-016 -0 -1.66753 -13.9708 176.645 -5.9432 -3.18056e-015 7.95139e-016 10.6943 -1.9165 3.04317 90 -1.61513e-016 -0 
178.172 89.4024 -210.457 -175.417 -83.4371 95.4907 -0.721148 -1.25355 -1.06662 -1.45832 -2.48275 -2.14935 -1.45832 -2.48275 -2.14936 -8.30748e-012 -9.0191e-006 -5.27751e-005 10.0719 -0.00656573 0.00202493 -179.267 -31.2924 -88.5895 -28.8126 -66.52 6.47486 -3.25617 0 1.59028e-015 -23.4368 -32.7516 -22.5154 -179.033 22.0136 87.4218 -29.598 32.6191 -0.311124 -7.21126 0 7.95139e-016 -72.9721 70.0046 76.722 -0.5182 8.63141 -178.143 -7.46174 3.18055e-015 -1.19271e-015 13.8868 5.12201 -8.16375 90 8.79001e-016 -3.97569e-016 -1.64167 -13.9748 176.627 -5.92048 3.18056e-015 3.97569e-016 10.7064 -1.92826 3.06188 90 -6.21202e-017 -0 
178.173 89.4021 -210.458 -175.4 -83.4083 95.5086 -0.721589 -1.25492 -1.06559 -1.47617 -2.48187 -2.14577 -1.47617 -2.48187 -2.14578 -8.30669e-012 -9.0191e-006 -5.27751e-005 10.0836 -0.019932 -0.00262239 -179.284 -31.2734 -88.62 -28.7902 -66.4793 6.50507 -3.26011 3.18055e-015 1.59028e-015 -23.3407 -32.7427 -22.4284 -179.06 21.9928 87.491 -29.4891 32.6954 -0.421278 -7.25364 6.36111e-015 7.95139e-016 -72.7861 69.9788 76.5223 -0.551241 8.64203 -178.137 -7.4721 1.59028e-015 -7.95139e-016 13.9015 5.12985 -8.17647 90 1.09953e-015 -1.59028e-015 -1.66779 -13.9641 176.634 -5.92072 4.77083e-015 -3.97569e-016 10.7027 -1.91778 3.04529 90 -7.45443e-017 1.59028e-015 
178.17 89.4021 -210.461 -175.288 -83.4013 95.6225 -0.722078 -1.25581 -1.06305 -1.47491 -2.48859 -2.13585 -1.47491 -2.48859 -2.13586 -8.30708e-012 -9.0191e-006 -5.27751e-005 10.0363 -0.026917 -0.00726972 -179.24 -31.2982 -88.5362 -28.9302 -66.4252 6.39026 -3.28303 -3.18055e-015 6.36111e-015 -23.4422 -32.8113 -22.5349 -179.045 22.0407 87.4558 -29.6214 32.5427 -0.343612 -7.21918 -3.18055e-015 7.95139e-016 -73.0362 70.0591 76.7847 -0.559871 8.65803 -178.14 -7.48806 0 -3.97569e-016 13.9072 5.12778 -8.17311 90 -2.51587e-016 3.97569e-016 -1.67907 -13.9696 176.628 -5.93215 -3.18056e-015 -7.95139e-016 10.7086 -1.93376 3.07068 90 -2.48481e-017 4.77083e-015 
178.166 89.4023 -210.465 -175.292 -83.4055 95.6186 -0.722469 -1.25613 -1.05982 -1.4689 -2.49803 -2.14589 -1.4689 -2.49803 -2.1459 -8.30788e-012 -9.0191e-006 -5.27751e-005 9.98379 -0.0234387 -0.00329023 -179.264 -31.3074 -88.5831 -28.7419 -66.4135 6.59013 -3.35977 0 -0 -23.4467 -32.9073 -22.5648 -179.032 22.0081 87.4174 -29.553 32.6378 -0.371531 -7.2498 0 -0 -72.8116 70.0198 76.5466 -0.560934 8.64271 -178.149 -7.50298 -1.59028e-015 -3.97569e-016 13.9058 5.11944 -8.15962 90 -9.93923e-017 -1.19271e-015 -1.68096 -13.9568 176.619 -5.94487 -3.18056e-015 -3.97569e-016 10.7117 -1.92321 3.05384 90 -2.48481e-017 -3.18055e-015 
178.165 89.4024 -210.474 -174.938 -83.4048 95.969 -0.722635 -1.25291 -1.05672 -1.45765 -2.4918 -2.13156 -1.45765 -2.4918 -2.13157 -8.30748e-012 -9.0191e-006 -5.27751e-005 9.90202 -0.00188224 0.00482023 -179.245 -31.3031 -88.547 -28.6811 -66.3892 6.65625 -3.31365 3.18055e-015 -3.18055e-015 -23.4651 -32.8496 -22.5621 -179.025 22.0085 87.3993 -29.5624 32.6407 -0.354222 -7.24238 0 -7.95139e-016 -72.8768 70.0333 76.6158 -0.558381 8.69101 -178.151 -7.52824 -3.18055e-015 -0 13.9239 5.11778 -8.15703 90 2.11209e-016 -0 -1.69385 -13.9467 176.61 -5.97349 -4.77083e-015 3.97569e-016 10.7124 -1.94682 3.09102 90 8.69683e-017 1.59028e-015 
178.164 89.402 -210.473 -175.022 -83.371 95.8619 -0.723106 -1.26569 -1.05456 -1.46992 -2.51729 -2.12561 -1.46992 -2.51729 -2.12562 -8.30748e-012 -9.0191e-006 -5.27751e-005 9.88781 0.0317227 0.102235 -179.253 -31.3363 -88.563 -28.5829 -66.446 6.76832 -3.25374 0 -3.18055e-015 -23.4668 -32.7785 -22.5449 -179.028 21.9153 87.3985 -29.4074 32.6844 -0.471634 -7.26016 -6.36111e-015 -1.59028e-015 -72.6653 70.0049 76.389 -0.601735 8.68885 -178.122 -7.53807 0 -0 13.9387 5.12705 -8.17204 90 9.38015e-016 -3.97569e-016 -1.71808 -13.9447 176.64 -5.96155 -1.59028e-015 7.95139e-016 10.6917 -1.93343 3.0698 90 -3.72721e-017 1.59028e-015 
178.162 89.4019 -210.483 -174.991 -83.3684 95.898 -0.723551 -1.26653 -1.05369 -1.47085 -2.51896 -2.12515 -1.47085 -2.51896 -2.12516 -8.30748e-012 -9.0191e-006 -5.27751e-005 9.93635 -0.0216888 0.138244 -179.223 -31.3146 -88.5045 -28.421 -66.278 6.91701 -3.35264 -6.36111e-015 -1.59028e-015 -23.4982 -32.9644 -22.6252 -179.019 21.9561 87.3787 -29.4302 32.5491 -0.53205 -7.21464 6.36111e-015 3.97569e-016 -72.8963 70.0791 76.6385 -0.585373 8.67874 -178.13 -7.51796 -1.59028e-015 3.97569e-016 13.9316 5.12028 -8.16046 90 4.62796e-016 -0 -1.69097 -13.9368 176.638 -5.91764 -3.18056e-015 -1.98785e-015 10.6874 -1.93639 3.07456 90 -7.45443e-017 1.59028e-015 
